<?xml version="1.0" encoding="UTF-8"?>
<svg version="1.1" xmlns="http://www.w3.org/2000/svg" width="1203" height="439">
<path d="M0 0 C1.80645241 -0.0076664 1.80645241 -0.0076664 3.6493988 -0.01548767 C6.93259729 -0.02695848 10.21563818 -0.02946486 13.4988513 -0.02692437 C16.24957778 -0.02584938 19.00028137 -0.0307515 21.75100291 -0.03552979 C28.24596622 -0.04659886 34.74087168 -0.0470772 41.23583984 -0.04101562 C47.91373576 -0.0349787 54.59142083 -0.04728555 61.26928079 -0.06858569 C67.02327983 -0.08625735 72.7772121 -0.09219429 78.53123724 -0.08894795 C81.95875327 -0.08714365 85.38611888 -0.08968512 88.81361008 -0.10366249 C92.64022654 -0.11604701 96.46635958 -0.1092224 100.29296875 -0.09765625 C101.41328995 -0.10529999 102.53361115 -0.11294373 103.68788147 -0.12081909 C114.6056591 -0.04815875 122.94727841 2.17463277 131.27587891 9.4621582 C138.30593476 17.37097104 141.94270998 26.15018375 145.48681641 35.98950195 C146.01707824 37.43366379 146.54845671 38.87741605 147.08087158 40.32078552 C148.20391313 43.3716815 149.31988385 46.42502661 150.42999268 49.48065186 C152.15659296 54.23283251 153.89875256 58.97920147 155.64453125 63.72436523 C156.22770316 65.30981022 156.81086358 66.89525943 157.39401245 68.48071289 C157.68169369 69.26278107 157.96937492 70.04484924 158.26577377 70.85061646 C159.13384782 73.21223916 160.00037361 75.57442467 160.8664856 77.93676758 C165.61359076 90.87870013 170.4689132 103.77692581 175.40087891 116.6496582 C175.73802917 117.53096405 176.07517944 118.4122699 176.42254639 119.32028198 C178.20268036 123.9734044 179.98666555 128.62501961 181.77587891 133.2746582 C183.37322994 130.87863165 184.33506905 129.08935243 185.33789062 126.46069336 C185.6343045 125.68904343 185.93071838 124.91739349 186.2361145 124.12236023 C186.55603363 123.27800919 186.87595276 122.43365814 187.20556641 121.5637207 C187.71940384 120.22039421 187.71940384 120.22039421 188.24362183 118.84992981 C189.38303054 115.86788729 190.51695017 112.88378834 191.65087891 109.8996582 C192.44782918 107.81110241 193.24503416 105.72264379 194.04248047 103.63427734 C198.4599707 92.0529571 202.84165882 80.45829503 207.20556641 68.85668945 C207.65161224 67.67157776 208.09765808 66.48646606 208.55722046 65.26544189 C210.72593629 59.50224884 212.89090412 53.73770177 215.04882812 47.97045898 C229.70980977 8.86708537 229.70980977 8.86708537 244.41650391 2.11450195 C248.62869539 0.61512916 252.59966839 0.14887478 257.05534363 0.13421631 C258.6216301 0.12565109 258.6216301 0.12565109 260.21955872 0.11691284 C261.3547142 0.11579498 262.48986969 0.11467712 263.65942383 0.11352539 C264.86328735 0.10856049 266.06715088 0.10359558 267.30749512 0.09848022 C270.60323613 0.0863949 273.89891388 0.0789193 277.19466949 0.07446957 C279.25765932 0.07153133 281.32064369 0.06742508 283.38363075 0.06296539 C289.84959867 0.04930014 296.31555398 0.03962935 302.78153533 0.0357635 C310.22418192 0.03128829 317.66664436 0.01376139 325.10923499 -0.01523709 C330.87590249 -0.03691897 336.64251844 -0.04694427 342.40922624 -0.04827762 C345.84686111 -0.04932122 349.28432265 -0.05513314 352.72191429 -0.07309723 C356.56320385 -0.09021413 360.40404876 -0.0882632 364.24536133 -0.08178711 C365.37039566 -0.09100189 366.49542999 -0.10021667 367.65455627 -0.10971069 C378.38884978 -0.05322248 387.48576689 2.23037007 395.77587891 9.2746582 C403.35290174 16.95466969 406.03401528 24.94207925 405.97499084 35.56990051 C405.65777786 39.8789554 404.30188168 43.60182228 402.76025391 47.6105957 C402.28697662 48.89877701 402.28697662 48.89877701 401.80413818 50.21298218 C400.81018937 52.9062658 399.79411419 55.59047617 398.77587891 58.2746582 C398.15290675 59.94900674 397.53113866 61.62380382 396.91064453 63.29907227 C394.97369479 68.50868394 393.00101863 73.70443136 391.02587891 78.8996582 C390.2843851 80.8557179 389.54309854 82.81185618 388.80200195 84.76806641 C386.85421785 89.90721686 384.90315994 95.04511716 382.9508667 100.18255615 C381.79723043 103.21846947 380.64413086 106.25458606 379.49121094 109.29077148 C375.99693609 118.49238226 372.50073431 127.69325866 369.0025177 136.89337158 C363.31522091 151.85092582 357.63781197 166.81221966 351.96337891 181.7746582 C351.50476471 182.98390961 351.04615051 184.19316101 350.57363892 185.4390564 C348.24040939 191.59125432 345.90728526 197.74349221 343.57421875 203.89575195 C339.43272537 214.81664406 335.29025844 225.73716689 331.14785767 236.65771484 C328.85715751 242.69668058 326.56652148 248.73567063 324.27587891 254.7746582 C323.35921255 257.19132499 322.44254588 259.60799165 321.52587891 262.0246582 C320.84525391 263.8190332 320.84525391 263.8190332 320.15087891 265.6496582 C316.02587888 276.52465827 316.02587888 276.52465827 314.65101624 280.14929199 C313.73388813 282.56717797 312.8167637 284.98506534 311.89964294 287.4029541 C309.61506648 293.42597679 307.33042706 299.4489756 305.0456543 305.47192383 C299.46207296 320.19120144 299.46207296 320.19120144 293.88085938 334.91137695 C293.63994411 335.54692945 293.39902884 336.18248196 293.1508131 336.83729362 C292.178 339.40368267 291.20520038 341.97007682 290.23248482 344.53650284 C287.63391494 351.39257282 285.0341014 358.24816397 282.43041992 365.10229492 C281.53514603 367.45922464 280.63988216 369.81615815 279.74462891 372.1730957 C279.31460068 373.30512421 278.88457245 374.43715271 278.44151306 375.60348511 C276.16128633 381.61026684 273.8913757 387.6207106 271.63804626 393.63763428 C270.43736427 396.84193172 269.2307171 400.04396166 268.02297974 403.24560547 C267.49482324 404.65083742 266.96967506 406.05720481 266.44796753 407.46484375 C262.90559001 417.02161658 259.46648133 425.35311602 251.77587891 432.2746582 C251.03337891 432.9759082 250.29087891 433.6771582 249.52587891 434.3996582 C242.48252668 439.20194381 235.03620747 439.71651551 226.72338867 439.67871094 C225.12154221 439.68900581 225.12154221 439.68900581 223.48733521 439.69950867 C219.98051407 439.71771095 216.4741431 439.71394849 212.96728516 439.70825195 C210.51545569 439.71281677 208.06362749 439.71812324 205.61180115 439.72413635 C200.48178905 439.7330545 195.35193273 439.73065882 190.22192383 439.72070312 C183.66397675 439.7092133 177.10656812 439.72943253 170.54869175 439.75862026 C165.48789584 439.77700889 160.42722834 439.77668446 155.36640739 439.77098274 C152.94921043 439.77082987 150.53200457 439.77684617 148.11483955 439.78927422 C144.72880863 439.80423278 141.34376475 439.79347046 137.95776367 439.77636719 C136.96992386 439.78603516 135.98208405 439.79570312 134.96430969 439.80566406 C126.63733447 439.71805561 118.60815678 437.70561087 112.40087891 431.8371582 C111.79501953 431.28157227 111.18916016 430.72598633 110.56494141 430.15356445 C106.50420494 425.88890454 103.91373345 421.80565945 101.87744141 416.29418945 C101.61063065 415.59506439 101.34381989 414.89593933 101.06892395 414.17562866 C100.17088795 411.81600165 99.28603596 409.45164368 98.40087891 407.0871582 C97.7494553 405.36784603 97.09716497 403.64886205 96.4440918 401.93017578 C95.00063998 398.12664722 93.56287307 394.32103045 92.12890625 390.51391602 C89.65479272 383.94780395 87.16344631 377.38829224 84.67041016 370.8293457 C80.94911395 361.03572059 77.23302442 351.24013737 73.52197266 341.44262695 C68.39996774 327.92039131 63.27286632 314.40009385 58.14382935 300.88052368 C55.85426838 294.8453278 53.56509368 288.80998541 51.27587891 282.7746582 C50.35921408 280.35799084 49.44254741 277.94132417 48.52587891 275.5246582 C34.77587891 239.2746582 34.77587891 239.2746582 21.02587891 203.0246582 C20.57214401 201.82844849 20.11840912 200.63223877 19.65092468 199.39978027 C18.7341042 196.98270717 17.81728495 194.5656336 16.90046692 192.14855957 C14.61116367 186.11310756 12.32183921 180.07766359 10.0324707 174.04223633 C5.87932914 163.09330945 1.72627443 152.14434974 -2.42581177 141.19502258 C-3.36114048 138.72865966 -4.2965855 136.26234083 -5.23214722 133.79606628 C-7.53748734 127.71860969 -9.84116649 121.64053503 -12.14111328 115.56103516 C-16.18998839 104.86460547 -20.25241629 94.17438007 -24.38789368 83.51107788 C-26.16845133 78.91849717 -27.94006792 74.32248913 -29.71133423 69.72631836 C-30.54050075 67.58301739 -31.37432003 65.44150946 -32.21322632 63.30200195 C-44.05027042 33.1094509 -44.05027042 33.1094509 -38.22412109 19.2746582 C-33.21130396 10.13434248 -26.80888299 4.31143538 -16.82015991 1.22175598 C-11.24977811 -0.12824981 -5.70311783 -0.01256615 0 0 Z " fill="#3880BB" transform="translate(41.22412109375,-0.274658203125)"/>
<path d="M0 0 C150.93157115 0 150.93157115 0 179.1875 26.875 C183.08586635 30.89712401 186.16157188 35.18033287 189 40 C189.44214844 40.74765625 189.88429688 41.4953125 190.33984375 42.265625 C198.86860864 57.92329672 202.33967285 79.65454547 197.375 97 C192.82483216 109.6516862 184.49026018 120.66158806 174 129 C174 129.66 174 130.32 174 131 C175.62175618 132.12986322 177.30046843 133.17840313 179 134.1875 C194.09944057 143.6029002 203.91518439 156.99480532 208.421875 174.26171875 C213.30092647 197.3712801 210.38217736 220.85138614 198 241 C195.54621675 244.56149112 192.91322134 247.80734723 190 251 C189.47148438 251.62003906 188.94296875 252.24007812 188.3984375 252.87890625 C183.21559053 258.58514418 176.64406285 262.218241 170 266 C169.18660156 266.47566406 168.37320313 266.95132812 167.53515625 267.44140625 C121.54871257 292.51777468 34.42810017 279 0 279 C0 186.93 0 94.86 0 0 Z M72 58 C72 73.51 72 89.02 72 105 C79.1465625 105.0928125 79.1465625 105.0928125 86.4375 105.1875 C87.9217749 105.21481201 89.4060498 105.24212402 90.93530273 105.27026367 C101.04598812 105.33362151 109.23876737 104.33528041 117.26953125 97.859375 C121.44792194 93.36972722 123.15783384 87.54137123 123.5 81.5 C123.12724326 74.70620774 120.82561173 68.27249334 115.8125 63.5625 C106.92080793 57.17640421 97.47237777 57.62523538 86.9375 57.8125 C82.008125 57.874375 77.07875 57.93625 72 58 Z M72 164 C72 180.17 72 196.34 72 213 C81.3121875 213.12375 81.3121875 213.12375 90.8125 213.25 C93.71639526 213.30462402 93.71639526 213.30462402 96.67895508 213.36035156 C108.01460019 213.48495776 118.90474857 213.09166665 127.5625 204.74609375 C132.43015718 198.83347756 133.74576358 192.55818474 133.4375 184.99609375 C132.42104413 178.03518611 129.58366426 172.75002183 123.9375 168.5 C113.37585244 162.57398723 100.48192122 163.75066056 88.75 163.875 C80.45875 163.936875 80.45875 163.936875 72 164 Z " fill="#4592CE" transform="translate(481,0)"/>
<path d="M0 0 C26.4 0 52.8 0 80 0 C90.96395667 28.33904054 101.87830715 56.69598457 112.73388672 85.07666016 C116.11158375 93.90659541 119.49354439 102.73489773 122.87518311 111.56332397 C124.00234541 114.50612341 125.12937122 117.44897508 126.25634766 120.3918457 C129.60283894 129.13050484 132.94961933 137.8690527 136.29794312 146.60700989 C137.76700414 150.44078369 139.23589315 154.27462337 140.70471191 158.10848999 C141.44271262 160.03479381 142.18074968 161.96108371 142.91882324 163.88735962 C147.39125098 175.56073987 151.85524188 187.23729701 156.30859375 198.91796875 C157.6703909 202.48906171 159.0322139 206.0601448 160.39404297 209.63122559 C161.29320194 211.98945374 162.19213024 214.34776987 163.09082031 216.70617676 C167.5014949 228.27932925 171.9223556 239.84756485 176.44140625 251.37890625 C176.94590805 252.66760872 176.94590805 252.66760872 177.46060181 253.98234558 C178.99653332 257.90293764 180.53838546 261.82102099 182.09082031 265.73510742 C182.61926812 267.07856314 183.1475968 268.42206572 183.67578125 269.765625 C184.12864502 270.90805664 184.58150879 272.05048828 185.0480957 273.22753906 C186 276 186 276 186 279 C160.26 279 134.52 279 108 279 C104.46517341 270.51641618 101.08002677 262.0609102 97.9230957 253.44213867 C97.17617644 251.40664113 96.42122513 249.37423107 95.66601562 247.34179688 C95.18701419 246.03924105 94.70848043 244.73651312 94.23046875 243.43359375 C93.80145264 242.26884521 93.37243652 241.10409668 92.93041992 239.90405273 C92 237 92 237 92 234 C57.68 234 23.36 234 -12 234 C-12.66 236.97 -13.32 239.94 -14 243 C-14.95413334 245.86588286 -15.93645602 248.67870439 -17.00390625 251.5 C-17.28725327 252.26175537 -17.57060028 253.02351074 -17.86253357 253.80834961 C-18.45560241 255.39915945 -19.05150086 256.9889171 -19.65014648 258.57763672 C-20.56977891 261.01932602 -21.47988305 263.46441283 -22.38867188 265.91015625 C-22.96820215 267.46114231 -23.54826084 269.01193106 -24.12890625 270.5625 C-24.40182999 271.2946875 -24.67475372 272.026875 -24.95594788 272.78125 C-26.88372037 277.88372037 -26.88372037 277.88372037 -28 279 C-30.43396019 279.09498646 -32.83942952 279.12558417 -35.27368164 279.11352539 C-36.41506844 279.11374443 -36.41506844 279.11374443 -37.57951355 279.1139679 C-40.10642298 279.11326862 -42.63325962 279.10547555 -45.16015625 279.09765625 C-46.9075059 279.09579212 -48.65485607 279.0943682 -50.40220642 279.09336853 C-55.01031934 279.08954293 -59.61840095 279.07971229 -64.22650146 279.06866455 C-68.92508521 279.05845134 -73.62367399 279.0538711 -78.32226562 279.04882812 C-87.54819087 279.03809005 -96.77409284 279.02101313 -106 279 C-104.10221671 272.40338557 -101.96297495 265.96262496 -99.515625 259.55078125 C-99.18359573 258.67283401 -98.85156647 257.79488678 -98.50947571 256.89033508 C-97.42646097 254.02972453 -96.33837649 251.17107441 -95.25 248.3125 C-94.48280226 246.29027362 -93.7157967 244.26797432 -92.94897461 242.24560547 C-86.66062122 225.67637939 -80.30207661 209.13431068 -73.92619324 192.59861755 C-69.99742169 182.40516526 -66.09287834 172.20243222 -62.1875 162 C-61.62128937 160.52095184 -61.62128937 160.52095184 -61.04364014 159.01202393 C-59.50847855 155.00189087 -57.97335551 150.99174307 -56.43838501 146.98153687 C-53.82488786 140.15382829 -51.20978083 133.32673816 -48.59375 126.5 C-47.12494271 122.66668862 -45.65620991 118.83334869 -44.1875 115 C-43.82268524 114.04789642 -43.45787048 113.09579285 -43.08200073 112.11483765 C-38.60930009 100.44072425 -34.14508147 88.76341684 -29.69140625 77.08203125 C-29.23843674 75.89431122 -28.78546722 74.70659119 -28.31877136 73.48287964 C-26.13841617 67.76582059 -23.95905464 62.04838815 -21.78198242 56.33007812 C-14.60892095 37.51783056 -7.29787037 18.76595239 0 0 Z M39 95 C38.76276215 95.6535144 38.52552429 96.30702881 38.28109741 96.98034668 C36.01751801 103.21531371 33.75311533 109.44998109 31.48784447 115.6843338 C30.32398011 118.88754238 29.16040685 122.09085599 27.99755859 125.29443359 C26.65280475 128.99865866 25.30704672 132.70251728 23.9609375 136.40625 C23.52714783 137.6010498 23.09335815 138.79584961 22.64642334 140.02685547 C20.79682772 145.11101003 18.93957901 150.19065656 17.01269531 155.24609375 C16.72657379 155.99709351 16.44045227 156.74809326 16.1456604 157.52185059 C15.41831054 159.41959613 14.68341094 161.31444361 13.94775391 163.20898438 C12.8392298 165.98219088 12.8392298 165.98219088 13 169 C30.82 169 48.64 169 67 169 C66.29924987 164.79549923 65.66390015 161.67614279 64.23754883 157.79931641 C63.87659622 156.81033356 63.51564362 155.82135071 63.14375305 154.80239868 C62.75213486 153.74612274 62.36051666 152.6898468 61.95703125 151.6015625 C61.55095139 150.49380463 61.14487152 149.38604675 60.72648621 148.24472046 C59.4267495 144.70298108 58.11967818 141.16399873 56.8125 137.625 C55.95200305 135.28272503 55.0919723 132.94027873 54.23242188 130.59765625 C49.86778351 118.71444651 45.46948447 106.84419024 41 95 C40.34 95 39.68 95 39 95 Z " fill="#3781BE" transform="translate(809,0)"/>
<path d="M0 0 C76.23 0 152.46 0 231 0 C231 22.77 231 45.54 231 69 C205.26 69 179.52 69 153 69 C153 138.3 153 207.6 153 279 C128.25 279 103.5 279 78 279 C78 209.7 78 140.4 78 69 C52.26 69 26.52 69 0 69 C0 46.23 0 23.46 0 0 Z " fill="#2C68A0" transform="translate(972,0)"/>
<path d="M0 0 C0.87198029 -0.00861557 1.74396057 -0.01723114 2.6423645 -0.02610779 C5.52359734 -0.04880363 8.40386048 -0.04202272 11.28515625 -0.03295898 C13.28768199 -0.03819273 15.29020525 -0.04446829 17.29272461 -0.05174255 C21.48921308 -0.06215327 25.68536259 -0.05757524 29.88183594 -0.04296875 C35.26253633 -0.02577444 40.64216955 -0.04928086 46.02275085 -0.08445835 C50.15774629 -0.10640602 54.29248529 -0.10499734 58.42752075 -0.09669304 C60.41148042 -0.09587218 62.39545866 -0.10276115 64.37936401 -0.11746407 C67.15201674 -0.13486273 69.92273793 -0.12040747 72.6953125 -0.09765625 C73.51621368 -0.10934845 74.33711487 -0.12104065 75.18289185 -0.13308716 C78.94317388 -0.07022986 80.89614821 0.12467518 83.72872925 2.68914795 C85.40902503 5.64126632 86.71632342 8.48949229 87.90283203 11.67333984 C88.36567093 12.90133301 88.82850983 14.12932617 89.30537415 15.39453125 C89.80141315 16.73894943 90.2972727 18.08343384 90.79296875 19.42797852 C91.3198784 20.83616156 91.84762231 22.24403268 92.37614441 23.65161133 C93.79153616 27.42793799 95.19559958 31.20838473 96.59762955 34.98968887 C98.06632451 38.94456799 99.54569793 42.89544756 101.02416992 46.84667969 C103.387978 53.16743524 105.7463187 59.49020043 108.10009766 65.81469727 C110.83122601 73.15237936 113.57440585 80.48545862 116.328125 87.81469727 C116.69813629 88.79959641 117.06814758 89.78449554 117.44937134 90.79924011 C118.16933233 92.71548956 118.88933252 94.63172429 119.609375 96.54794312 C121.36216424 101.21524334 123.11074334 105.88411937 124.859375 110.55297852 C128.27662305 119.67613323 131.69630479 128.79837371 135.1171875 137.92016602 C135.36171221 138.57219309 135.60623692 139.22422016 135.85817146 139.89600563 C137.08131948 143.15751557 138.30449313 146.4190159 139.52767944 149.68051147 C141.8141831 155.77726444 144.10043635 161.87411132 146.38671875 167.97094727 C147.15966691 170.03214558 147.93261601 172.09334354 148.70556641 174.15454102 C149.25292969 175.61417643 149.80029297 177.07381185 150.34765625 178.53344727 C153.38746712 172.0042402 156.24267947 165.47401872 158.703125 158.70532227 C159.0017897 157.8954184 159.30045441 157.08551453 159.60816956 156.25106812 C160.25086801 154.50792469 160.89189382 152.76416377 161.53137207 151.01983643 C163.29170971 146.22102716 165.06745951 141.42793278 166.84375 136.63500977 C167.21372101 135.63641937 167.58369202 134.63782898 167.96487427 133.60897827 C171.93007029 122.9284185 176.0077234 112.29173205 180.09765625 101.65844727 C184.98582914 88.94683742 189.85207248 76.22777943 194.65234375 63.48266602 C195.31949402 61.71149414 195.31949402 61.71149414 196.00012207 59.90454102 C198.15288721 54.18657099 200.30237486 48.46738817 202.44824219 42.74682617 C204.73056698 36.66898943 207.03392616 30.59938869 209.34765625 24.53344727 C209.71661011 23.5600238 210.08556396 22.58660034 210.46569824 21.5836792 C211.52671221 18.79536358 212.60264002 16.01330265 213.68359375 13.23266602 C213.99559723 12.40757034 214.30760071 11.58247467 214.62905884 10.7323761 C217.77527926 2.73955434 217.77527926 2.73955434 221.34765625 0.53344727 C224.78793312 -0.05247247 228.1767989 -0.0507154 231.66015625 -0.03295898 C232.66602783 -0.03915756 233.67189941 -0.04535614 234.70825195 -0.05174255 C236.83316073 -0.05884083 238.95812512 -0.05566661 241.08300781 -0.04296875 C244.33632565 -0.02910103 247.5867688 -0.06317716 250.83984375 -0.10131836 C252.90494862 -0.10226953 254.9700571 -0.10041084 257.03515625 -0.09545898 C258.00815674 -0.10871719 258.98115723 -0.1219754 259.98364258 -0.13563538 C266.58040094 -0.0445545 266.58040094 -0.0445545 270.0546875 2.57275391 C273.31808386 10.04541395 268.86184644 18.15923211 266.10546875 25.24438477 C265.67024902 26.38440445 265.2350293 27.52442413 264.78662109 28.69898987 C263.84726054 31.15593438 262.90480725 33.61139452 261.956604 36.06491089 C260.45158525 39.9593153 258.95904451 43.8584287 257.46826172 47.75830078 C255.42352996 53.10422548 253.37378241 58.44819756 251.3203125 63.79077148 C247.01014786 75.00697762 242.73997126 86.23838117 238.47265625 97.47094727 C238.08156677 98.49981049 237.69047729 99.52867371 237.28753662 100.5887146 C223.55784903 136.71355997 210.22128866 172.9796222 196.99249268 209.29029846 C196.07238153 211.8153331 195.14930925 214.33922384 194.22479248 216.86265564 C192.12031887 222.6152083 190.04614499 228.37363455 188.05859375 234.16772461 C187.7037793 235.1872673 187.34896484 236.20681 186.98339844 237.25724792 C186.33266402 239.13263817 185.69427562 241.01238148 185.07128906 242.89717102 C183.39049359 247.70484249 182.15173764 251.19996876 177.34765625 253.53344727 C173.58981219 254.08212799 169.88975001 254.070028 166.09765625 254.02954102 C165.00678711 254.03099625 163.91591797 254.03245148 162.79199219 254.03395081 C160.48890508 254.03229309 158.18580676 254.02074625 155.8828125 254 C152.36019776 253.97105033 148.83908876 253.97939378 145.31640625 253.99243164 C143.07681561 253.98619387 140.83722972 253.97780263 138.59765625 253.96704102 C137.01936035 253.97144447 137.01936035 253.97144447 135.40917969 253.97593689 C125.79065565 253.85201575 125.79065565 253.85201575 122.34765625 250.53344727 C119.11658908 245.4365317 117.13916417 239.6456587 115.08984375 233.99829102 C114.7897641 233.1841423 114.48968445 232.36999359 114.18051147 231.53117371 C113.5316252 229.77017852 112.88464191 228.00848119 112.23937988 226.24615479 C110.466424 221.40676645 108.67662521 216.57361826 106.88671875 211.74047852 C106.32712463 210.22868011 106.32712463 210.22868011 105.75622559 208.68634033 C101.78492571 197.97899512 97.69697519 187.31728757 93.59765625 176.65844727 C87.25623977 160.153302 80.94975879 143.63532452 74.69567871 127.09686279 C73.80356087 124.73860345 72.91042818 122.38072774 72.01623535 120.02325439 C70.76970658 116.73604969 69.52691206 113.44745745 68.28515625 110.15844727 C67.91517517 109.18455048 67.54519409 108.21065369 67.16400146 107.20724487 C65.33788881 102.35683092 63.67941569 97.54307087 62.34765625 92.53344727 C61.66960937 92.59145508 60.9915625 92.64946289 60.29296875 92.70922852 C51.83012114 93.11947736 45.69002635 91.36879864 39.2734375 85.70141602 C33.93686682 80.02921196 31.29933907 74.44210363 30.91015625 66.65844727 C31.17913031 59.36252602 33.58518297 53.05737161 38.53515625 47.65844727 C45.09196873 41.78232083 51.65765859 39.82351097 60.41796875 40.14672852 C67.48837327 41.08002191 73.43344057 44.39585815 78.34765625 49.53344727 C83.68808485 56.9507092 84.66942903 64.57818053 83.34765625 73.53344727 C82.29824235 76.37918888 81.09538921 78.84919794 79.5390625 81.44750977 C77.83400405 84.43275964 77.07170071 86.41745877 77.91456604 89.82608032 C78.24125778 90.67262177 78.56794952 91.51916321 78.90454102 92.39135742 C79.27489975 93.3672583 79.64525848 94.34315918 80.02684021 95.34863281 C80.44337357 96.41251221 80.85990692 97.4763916 81.2890625 98.57250977 C81.71909073 99.69681396 82.14911896 100.82111816 82.59217834 101.97949219 C83.52910596 104.42474303 84.46986126 106.86808148 85.4175415 109.30914307 C86.92569634 113.19408992 88.41889306 117.08467501 89.90966797 120.97631836 C91.73084931 125.72768707 93.55549918 130.47769411 95.38463211 135.22600746 C98.71051173 143.86094051 102.0084102 152.50623713 105.2890625 161.15844727 C105.52780279 161.78807247 105.76654308 162.41769768 106.01251793 163.06640244 C107.19994938 166.19857942 108.38670443 169.33101164 109.57315063 172.46356201 C110.96357097 176.13446089 112.35503874 179.80496105 113.74682617 183.4753418 C115.89483368 189.14035534 118.04168204 194.80580683 120.18774414 200.47155762 C121.28164997 203.35920652 122.37614593 206.24663116 123.47070312 209.1340332 C124.9662457 213.08054858 126.45840253 217.02832296 127.94696045 220.97747803 C128.4569438 222.3291807 128.96802059 223.68047143 129.48028564 225.03131104 C130.15532755 226.81209887 130.82587709 228.5945878 131.49609375 230.37719727 C131.85880371 231.33819336 132.22151367 232.29918945 132.59521484 233.28930664 C133.34765625 235.53344727 133.34765625 235.53344727 133.34765625 237.53344727 C145.55765625 237.53344727 157.76765625 237.53344727 170.34765625 237.53344727 C171.00765625 234.56344727 171.66765625 231.59344727 172.34765625 228.53344727 C172.84195927 226.86951552 173.3669186 225.21390462 173.94140625 223.57592773 C174.39569504 222.27005707 174.39569504 222.27005707 174.85916138 220.93780518 C175.18536469 220.01803894 175.51156799 219.09827271 175.84765625 218.15063477 C176.19504852 217.15997009 176.5424408 216.16930542 176.90036011 215.14862061 C178.04290812 211.89954202 179.1944844 208.65376931 180.34765625 205.40844727 C180.94589203 203.71809357 180.94589203 203.71809357 181.55621338 201.99359131 C188.97455821 181.05333075 196.83717419 160.30191526 204.85823059 139.5867157 C209.40603767 127.82541638 213.84280727 116.02238034 218.28515625 104.22094727 C219.9512906 99.79887156 221.61814589 95.3770678 223.28515625 90.95532227 C223.90530357 89.3102343 223.90530357 89.3102343 224.53797913 87.63191223 C228.86023894 76.16891018 233.19392021 64.7102557 237.53933716 53.25601196 C238.35863863 51.09561936 239.17724189 48.93496181 239.99508667 46.77401733 C243.96251197 36.29258869 247.94288657 25.84043317 252.34765625 15.53344727 C244.75765625 15.53344727 237.16765625 15.53344727 229.34765625 15.53344727 C229.01765625 17.51344727 228.68765625 19.49344727 228.34765625 21.53344727 C227.91174807 22.93377184 227.43050034 24.32101614 226.89916992 25.68798828 C226.45433762 26.8453952 226.45433762 26.8453952 226.0005188 28.02618408 C225.67550385 28.85487 225.35048889 29.68355591 225.015625 30.53735352 C224.67224091 31.4270282 224.32885681 32.31670288 223.97506714 33.2333374 C223.2273463 35.16916015 222.47710251 37.10400985 221.72463989 39.03799438 C219.66258712 44.33916878 217.6199038 49.64781532 215.57421875 54.95532227 C215.14498611 56.06744583 214.71575348 57.1795694 214.27351379 58.32539368 C209.58861181 70.4748978 204.99704338 82.65918022 200.41015625 94.84594727 C198.73363113 99.29667855 197.05641789 103.74715022 195.37890625 108.19750977 C194.96373749 109.2990036 194.54856873 110.40049744 194.12081909 111.53536987 C187.649476 128.69737741 181.12877797 145.84064781 174.59938049 162.9806366 C172.4986196 168.49838882 170.40761184 174.01967236 168.32798767 179.54542542 C167.11701552 182.76158364 165.90141003 185.97597852 164.68502808 189.19009399 C164.13463569 190.64818551 163.5864918 192.10712812 163.040802 193.56698608 C162.30513875 195.53461657 161.56173052 197.49914764 160.81640625 199.46313477 C160.20442383 201.090979 160.20442383 201.090979 159.58007812 202.75170898 C158.40863799 205.39580346 157.28857092 207.39682577 155.34765625 209.53344727 C151.85812308 210.67133852 150.1435648 210.90716434 146.79418945 209.33447266 C143.97777276 207.26115603 143.29668812 206.02235111 142.078125 202.77954102 C141.66224121 201.69914551 141.24635742 200.61875 140.81787109 199.50561523 C140.58743103 198.88241394 140.35699097 198.25921265 140.11956787 197.61712646 C139.26269901 195.30411579 138.38176749 193.00106845 137.49853516 190.69799805 C135.19508528 184.67296966 132.92806749 178.63442229 130.66015625 172.59594727 C129.79097589 170.2863814 128.92158539 167.9768946 128.05200195 165.66748047 C126.4117271 161.31063998 124.77210094 156.9535569 123.13340664 152.59612179 C119.68628506 143.43015261 116.23250656 134.26670031 112.77734375 125.10375977 C102.79407922 98.62688207 92.81276588 72.14930478 82.88549805 45.65136719 C82.61903976 44.94015213 82.35258148 44.22893707 82.07804871 43.49617004 C81.57122707 42.1424999 81.06486732 40.7886567 80.55903625 39.43461609 C79.26054919 35.96023295 77.95200742 32.49000633 76.63085938 29.02416992 C76.35054871 28.28568314 76.07023804 27.54719635 75.78143311 26.78633118 C75.24446683 25.37236701 74.70492228 23.95937843 74.16241455 22.54753113 C72.34765625 17.75807423 72.34765625 17.75807423 72.34765625 15.53344727 C50.56765625 15.53344727 28.78765625 15.53344727 6.34765625 15.53344727 C10.30765625 25.10344727 14.26765625 34.67344727 18.34765625 44.53344727 C20.98641969 51.12694662 23.61998972 57.72039511 26.22174072 64.32827759 C28.44427109 69.97181079 30.67602874 75.6117 32.90625 81.25219727 C33.15214874 81.87436441 33.39804749 82.49653156 33.65139771 83.13755226 C40.69175142 100.95085918 47.77654798 118.74650673 54.85770798 136.54362106 C56.72316093 141.23227596 58.58824134 145.92107904 60.45336914 150.60986328 C67.09449647 167.30472567 73.7369263 183.99906966 80.38026237 200.69305325 C83.55776176 208.67783238 86.73485262 216.662774 89.9116993 224.64781284 C91.79407072 229.37908854 93.67667514 234.11027121 95.55987549 238.84121704 C103.87073884 259.71984137 112.15865859 280.60667006 120.34765625 301.53344727 C121.44924072 301.52498779 122.5508252 301.51652832 123.68579102 301.5078125 C131.55902855 301.56292884 137.91667127 303.95876814 143.5859375 309.46704102 C149.27076697 316.13505607 151.20894426 322.61159526 150.828125 331.34985352 C149.69268053 338.87332704 146.1980137 344.74032839 140.1640625 349.35375977 C133.56863834 353.63723954 126.62265151 355.28542472 118.91015625 353.97094727 C111.51387576 352.05481242 105.35460726 347.70395577 101.27734375 341.23657227 C98.00132904 335.23513356 97.5738862 329.25499191 98.34765625 322.53344727 C99.64379507 318.389634 101.42081575 314.75867802 104.04101562 311.29492188 C105.65617097 308.5853303 105.65617097 308.5853303 104.78393555 305.61328125 C104.33445557 304.51314697 103.88497559 303.4130127 103.421875 302.27954102 C103.17354919 301.65419464 102.92522339 301.02884827 102.66937256 300.384552 C101.81122271 298.23807842 100.92278338 296.10538465 100.03515625 293.97094727 C99.39057327 292.37470154 98.74815856 290.77757891 98.10766602 289.1796875 C96.66423093 285.58825969 95.20825793 282.00223438 93.74414062 278.41918945 C91.25341443 272.31570765 88.80509031 266.19569794 86.36328125 260.07250977 C83.49706067 252.88811369 80.62986867 245.70413358 77.75195312 238.52441406 C68.70250386 215.94694616 59.70288254 193.34978741 50.71418762 170.74806976 C49.53571161 167.7848437 48.35715901 164.8216481 47.17858887 161.85845947 C42.78640808 150.81537182 38.39492735 139.77200589 34.00382614 128.72848892 C27.50150962 112.37535131 20.99817161 96.0226199 14.49464893 79.66996193 C12.22835062 73.97144677 9.96226172 68.27284842 7.69649601 62.57412148 C6.98244104 60.7783386 6.26827263 58.98260083 5.55398464 57.18691063 C3.88033512 52.97930592 2.20805566 48.77117141 0.53947449 44.56155396 C-2.06736446 37.98970405 -4.68163559 31.42403363 -7.39990234 24.8972168 C-7.78744186 23.95950943 -8.17498138 23.02180206 -8.57426453 22.05567932 C-9.24143758 20.4487533 -9.91806601 18.84568957 -10.60798645 17.24839783 C-12.42603029 12.85770799 -13.29201752 9.27457966 -12.65234375 4.53344727 C-9.35607172 -0.27774509 -5.37713921 -0.04274639 0 0 Z " fill="#FFFFFF" transform="translate(72.65234375,24.466552734375)"/>
<path d="M0 0 C4.32036821 3.23829773 5.72879536 7.58093035 7.57421875 12.4609375 C8.08223274 13.76748795 8.08223274 13.76748795 8.60050964 15.10043335 C9.74664863 18.06214531 10.87465173 21.03032933 12 24 C12.60693695 25.59261658 12.60693695 25.59261658 13.22613525 27.21740723 C16.19853386 35.02147316 19.13937002 42.83726663 22.07323074 50.65587997 C24.11427295 56.09240672 26.16107537 61.52677053 28.20681572 66.96153069 C28.9838155 69.02585729 29.76059466 71.09026682 30.53736877 73.15467834 C35.1867781 85.50870614 39.86830191 97.85042262 44.5625 110.1875 C45.33204233 112.210445 46.10157352 114.23339424 46.87109375 116.25634766 C48.03904951 119.32666024 49.20702357 122.39696584 50.37512207 125.46722412 C55.19638639 138.14147458 60.00421829 150.82081995 64.8125 163.5 C65.74096422 165.94816178 66.66943102 168.39632259 67.59790039 170.84448242 C69.46587962 175.76999704 71.33378731 180.69553879 73.20166016 185.62109375 C77.34315353 196.54198586 81.48562047 207.46250869 85.62802124 218.38305664 C87.9187214 224.42202237 90.20935743 230.46101243 92.5 236.5 C93.41666636 238.91666678 94.33333303 241.33333345 95.25 243.75 C100.75 258.24999999 100.75 258.24999999 102.12469482 261.8742218 C103.04235544 264.2934913 103.9600394 266.71275195 104.87774658 269.13200378 C107.15439623 275.13377513 109.43065419 281.13569441 111.70605469 287.13793945 C116.0096402 298.48902646 120.31737747 309.83848692 124.63806152 321.18307495 C126.43462982 325.90032117 128.22932946 330.61827767 130.02361298 335.33639336 C131.2496737 338.55991034 132.47682241 341.78300418 133.70654297 345.00512695 C135.06216404 348.55842643 136.41426152 352.11304831 137.765625 355.66796875 C138.16662415 356.71623337 138.56762329 357.76449799 138.98077393 358.8445282 C139.35095642 359.8203334 139.72113892 360.79613861 140.10253906 361.80151367 C140.42256897 362.64139328 140.74259888 363.48127289 141.07232666 364.34660339 C142.18205688 367.52073191 143.07624258 370.76684902 144 374 C187.065 373.505 187.065 373.505 231 373 C234.17625 364.62625 237.3525 356.2525 240.625 347.625 C321.75 133.75 321.75 133.75 323.12472534 130.12573242 C324.04231489 127.70662714 324.95989708 125.28751906 325.87747192 122.8684082 C328.15495832 116.86402952 330.4325686 110.85969789 332.71044922 104.85546875 C337.00469964 93.53592155 341.29766053 82.21589039 345.58648682 70.89428711 C347.36387931 66.20237302 349.14186751 61.51068474 350.91998672 56.81904602 C352.13238232 53.61995144 353.34443543 50.42072802 354.55566406 47.22119141 C355.89305238 43.68881333 357.23156752 40.15686409 358.5703125 36.625 C358.96098907 35.59221924 359.35166565 34.55943848 359.75418091 33.49536133 C360.12421234 32.51978271 360.49424377 31.5442041 360.87548828 30.5390625 C361.19107697 29.70584473 361.50666565 28.87262695 361.83181763 28.01416016 C363.51856532 23.66199066 365.26649659 19.33375853 367 15 C359.74 15.33 352.48 15.66 345 16 C343.99324219 18.66835938 342.98648437 21.33671875 341.94921875 24.0859375 C334.24150964 44.50905168 326.52054777 64.92713057 318.77261353 85.33502197 C317.92376223 87.57117244 317.07527218 89.80746008 316.22714233 92.04388428 C315.03789758 95.17939666 313.84727723 98.31438309 312.65625 101.44921875 C312.29972855 102.38985672 311.94320709 103.33049469 311.57588196 104.29963684 C311.24984482 105.15683823 310.92380768 106.01403961 310.58789062 106.8972168 C310.16183533 108.01932808 310.16183533 108.01932808 309.72717285 109.16410828 C309 111 309 111 308 113 C308.66 113 309.32 113 310 113 C315.62405227 119.05196929 317.65203259 125.8771357 318 134 C317.64084866 141.03712152 314.60737738 146.75044392 310 152 C304.15384048 156.96440405 297.64398443 159 290 159 C289.86851248 159.73455729 289.73702496 160.46911457 289.60155296 161.22593117 C289.05114583 163.76414039 288.33513931 165.97844222 287.37515259 168.38510132 C286.87156471 169.65662048 286.87156471 169.65662048 286.35780334 170.9538269 C285.98916672 171.87189117 285.62053009 172.78995544 285.24072266 173.73583984 C284.85169266 174.71445984 284.46266266 175.69307983 284.06184387 176.70135498 C282.76670592 179.95620832 281.46543767 183.20857347 280.1640625 186.4609375 C279.24659786 188.76244782 278.3294799 191.06409638 277.41268921 193.36587524 C275.47660406 198.22428104 273.53786026 203.0816165 271.59667969 207.93798828 C269.16946403 214.01033064 266.74697952 220.08454934 264.32617569 226.15945053 C259.61946323 237.97062127 254.9019411 249.77741039 250.17248917 261.57949448 C247.38015588 268.5485144 244.59578528 275.52064554 241.81739998 282.49523735 C240.05783998 286.90777189 238.29179434 291.31768898 236.52396774 295.72691727 C235.69697704 297.79328278 234.87263405 299.86071012 234.05107498 301.92924118 C232.92577752 304.76124323 231.79102676 307.58927193 230.65380859 310.41650391 C230.16147295 311.6654714 230.16147295 311.6654714 229.65919113 312.93967056 C229.35113163 313.69995434 229.04307213 314.46023811 228.72567749 315.24356079 C228.463048 315.90105631 228.20041851 316.55855183 227.92983055 317.23597145 C226.86380886 319.2583751 225.74873283 320.53154213 224 322 C220.50668376 323.0631832 218.6445605 323.22917707 215.1875 322 C213 320 213 320 212.15869141 316.95922852 C211.95328675 311.83454024 213.34327383 308.33924487 215.2734375 303.65234375 C215.65201401 302.69571335 216.03059052 301.73908295 216.42063904 300.75346375 C217.72306832 297.47498038 219.04907401 294.20654461 220.375 290.9375 C221.31863668 288.57719354 222.26088542 286.21633183 223.2019043 283.85498047 C225.41874529 278.30047951 227.64973203 272.7517847 229.88720703 267.20556641 C232.95220894 259.60741243 236.00584589 252.00475059 239.05419922 244.39990234 C239.49906174 243.29008782 239.94392426 242.1802733 240.40226746 241.03682804 C241.32168186 238.74306459 242.24108736 236.44929756 243.16048431 234.15552711 C250.57161507 215.66859728 257.99250594 197.18558474 265.43074226 178.70954323 C266.27789759 176.60509067 267.12477683 174.50052695 267.9713726 172.39584923 C269.13737531 169.49744401 270.30447407 166.59948277 271.47192383 163.70166016 C271.98982011 162.41358412 271.98982011 162.41358412 272.51817894 161.09948635 C272.83269823 160.31953336 273.14721752 159.53958036 273.4712677 158.73599243 C273.88054615 157.71958396 273.88054615 157.71958396 274.29809284 156.68264198 C274.81871625 155.4345812 275.39523485 154.2095303 276 153 C275.09121094 152.61908203 275.09121094 152.61908203 274.1640625 152.23046875 C269.59815453 149.63432974 267.57172699 144.37734229 265.625 139.6875 C264.24231625 131.52966586 265.30603929 123.89917714 270 117 C275.64484602 110.46386251 281.53294448 107.16999313 290 106 C291.32 106 292.64 106 294 106 C294.16852478 105.40805344 294.33704956 104.81610687 294.51068115 104.20622253 C296.43149541 97.61637245 298.70036711 91.21425263 301.140625 84.80078125 C301.54001282 83.74295441 301.93940063 82.68512756 302.35089111 81.59524536 C303.6468063 78.16621563 304.94793397 74.73919847 306.25 71.3125 C307.14914207 68.94215898 308.04823017 66.57179748 308.94726562 64.20141602 C310.31015598 60.60966262 311.67385765 57.01822471 313.03955078 53.42753601 C315.52288918 46.8982705 317.99405412 40.36471805 320.44671631 33.8238678 C321.80753626 30.19898394 323.17697819 26.57740281 324.54870605 22.95663452 C325.17909127 21.28730281 325.80584804 19.61659606 326.42883301 17.94448853 C327.28630836 15.64526284 328.15702481 13.35149284 329.03125 11.05859375 C329.39721283 10.06232468 329.39721283 10.06232468 329.77056885 9.04592896 C331.26135175 5.18688987 332.4880002 2.27380368 336 0 C339.43928023 -0.58424566 342.83083476 -0.56022304 346.3125 -0.53125 C347.31837158 -0.5350769 348.32424316 -0.53890381 349.3605957 -0.54284668 C351.48552451 -0.54556651 353.61048676 -0.53820041 355.73535156 -0.52148438 C358.98838932 -0.50007641 362.23921845 -0.52128432 365.4921875 -0.546875 C367.55729654 -0.54423174 369.62240421 -0.53910679 371.6875 -0.53125 C372.66050049 -0.53934692 373.63350098 -0.54744385 374.63598633 -0.55578613 C381.23071496 -0.46418455 381.23071496 -0.46418455 384.64453125 1.59570312 C386.82965158 5.47161541 386.60628809 8.76028809 385.45492554 13.01358032 C384.68581812 15.29572042 383.83322566 17.52940109 382.94921875 19.76953125 C382.62406281 20.62114838 382.29890686 21.4727655 381.96389771 22.35018921 C380.88247581 25.17520374 379.78489455 27.99365599 378.6875 30.8125 C377.91312314 32.82742641 377.1399547 34.84281761 376.36791992 36.85864258 C374.74120479 41.10218484 373.10861397 45.34339743 371.47167969 49.58300781 C367.93616394 58.74876228 364.45806956 67.93625511 360.9753418 77.12216187 C358.98934788 82.3573907 356.99822176 87.59066742 355.0078125 92.82421875 C349.726972 106.71333802 344.45657581 120.60641413 339.1875 134.5 C338.7288858 135.7092514 338.27027161 136.91850281 337.79776001 138.16439819 C335.46453048 144.31659612 333.13140636 150.46883401 330.79833984 156.62109375 C326.65684647 167.54198586 322.51437953 178.46250869 318.37197876 189.38305664 C316.0812786 195.42202237 313.79064257 201.46101243 311.5 207.5 C310.58333364 209.91666678 309.66666697 212.33333345 308.75 214.75 C308.29625 215.94625 307.8425 217.1425 307.375 218.375 C303.25000001 229.24999998 303.25000001 229.24999998 301.87506104 232.87483215 C300.95818479 235.29205598 300.04131467 237.70928214 299.12445068 240.12651062 C296.83604089 246.15967177 294.54752529 252.19279275 292.25878906 258.22583008 C287.15253469 271.68614619 282.04895149 285.14746931 276.94882202 298.61010742 C274.63785453 304.70930041 272.32510497 310.80780665 270.00830078 316.90478516 C269.56062347 318.08290771 269.11294617 319.26103027 268.65170288 320.47485352 C267.75726886 322.82856112 266.86275857 325.18223974 265.96817017 327.53588867 C263.31329177 334.52579386 260.67361634 341.52121834 258.04589844 348.52137756 C256.38704459 352.93590254 254.71981691 357.34723477 253.05090332 361.75796509 C252.27479596 363.81523774 251.50249705 365.87395167 250.73425293 367.93417358 C249.68421374 370.748996 248.62107113 373.55852447 247.5546875 376.3671875 C247.25152618 377.19026901 246.94836487 378.01335052 246.63601685 378.8613739 C246.34604828 379.61723282 246.05607971 380.37309174 245.75732422 381.15185547 C245.39053055 382.12854691 245.39053055 382.12854691 245.0163269 383.12496948 C243.55840017 385.81471145 242.5354937 387.19499361 240 389 C236.6607556 389.60153611 233.35592361 389.54609555 229.97070312 389.51757812 C228.44327736 389.52809204 228.44327736 389.52809204 226.88499451 389.53881836 C223.51680282 389.55643305 220.14945034 389.54476276 216.78125 389.53125 C214.44242186 389.5339439 212.10359481 389.53782547 209.76477051 389.54284668 C204.86211488 389.54874646 199.95975068 389.54016299 195.05712891 389.52148438 C188.76857558 389.49869497 182.48070508 389.51181542 176.19217682 389.53577423 C171.36235395 389.550219 166.53269332 389.5456322 161.7028656 389.53526306 C159.38398661 389.53259214 157.06509295 389.53587832 154.74623108 389.54518127 C151.50685531 389.55532471 148.26858981 389.53987555 145.02929688 389.51757812 C144.06813461 389.52567505 143.10697235 389.53377197 142.11668396 389.54211426 C135.64297956 389.45943934 135.64297956 389.45943934 132.47549438 387.19612122 C131.15793432 385.23506894 130.16097594 383.55869385 129.36279297 381.34448242 C129.10011627 380.63365005 128.83743958 379.92281769 128.56680298 379.19044495 C128.29467987 378.4199028 128.02255676 377.64936066 127.7421875 376.85546875 C127.44210785 376.03566025 127.1420282 375.21585175 126.83285522 374.37120056 C126.18104895 372.58735511 125.53419949 370.80169246 124.89172363 369.01446533 C123.13040158 364.11716953 121.33144746 359.23364855 119.5390625 354.34765625 C119.16599976 353.32742371 118.79293701 352.30719116 118.40856934 351.25604248 C114.46952761 340.50173609 110.36649599 329.81234196 106.25 319.125 C99.793933 302.33498058 93.40379971 285.52119501 87.0625 268.6875 C80.60706199 251.55341553 74.13399039 234.42631808 67.625 217.3125 C67.23882507 216.29707123 66.85265015 215.28164246 66.45477295 214.23544312 C65.66813291 212.16701709 64.88149146 210.09859159 64.09484863 208.03016663 C63.70132202 206.99540695 63.30779541 205.96064728 62.90234375 204.89453125 C62.50623901 203.85304428 62.11013428 202.81155731 61.70202637 201.73851013 C56.85617477 188.99525284 52.02185535 176.24762199 47.1875 163.5 C46.72861389 162.2900235 46.26972778 161.080047 45.79693604 159.83340454 C43.46398237 153.68193858 41.13112825 147.53043488 38.79833984 141.37890625 C34.65511006 130.45343533 30.51090055 119.52833603 26.36676025 108.60321045 C25.00863279 105.02275874 23.65054905 101.44229045 22.29248047 97.86181641 C17.99127637 86.52197058 13.68984169 75.18221236 9.38772583 63.8427124 C7.60114417 59.13364259 5.81466122 54.42453533 4.02820015 49.71541977 C2.80851581 46.50035231 1.58877418 43.2853066 0.36889648 40.0703125 C-0.97686228 36.52348947 -2.32243486 32.97659585 -3.66796875 29.4296875 C-4.06380661 28.38658417 -4.45964447 27.34348083 -4.86747742 26.26876831 C-5.58982244 24.36441757 -6.31028273 22.45935031 -7.02841187 20.55340576 C-7.65220813 18.91402285 -8.28796031 17.2791115 -8.93862915 15.65020752 C-10.80115399 10.93525801 -11.36463358 7.9711652 -10 3 C-7.67133148 -1.01048467 -4.26353269 -0.52359173 0 0 Z " fill="#FFFFFF" transform="translate(36,25)"/>
<path d="M0 0 C12.07599884 10.54717395 20.01606461 23.51249206 22.74609375 39.3984375 C22.875 40.11386719 23.00390625 40.82929688 23.13671875 41.56640625 C26.08486712 61.00091061 21.1012472 79.54214214 9.74609375 95.3984375 C9.2975 96.03265625 8.84890625 96.666875 8.38671875 97.3203125 C-2.13527566 110.81322298 -18.64987231 118.23227536 -35.25390625 120.3984375 C-56.62447602 122.19380726 -76.21480187 118.72615346 -93.62890625 105.5859375 C-107.65818423 93.55101767 -115.97115243 76.79590376 -117.40917969 58.41357422 C-118.60361694 38.00449147 -112.49036832 20.76265516 -99.41796875 5.21484375 C-74.28758219 -21.98323284 -28.06301943 -22.43550823 0 0 Z M-65.37890625 11.1484375 C-67.57366699 12.33448535 -67.57366699 12.33448535 -68.25390625 15.3984375 C-68.3540813 17.74820138 -68.39223574 20.1007487 -68.39916992 22.45263672 C-68.40252853 23.16680756 -68.40588715 23.88097839 -68.40934753 24.61679077 C-68.41885028 26.97891985 -68.42080035 29.34097799 -68.421875 31.703125 C-68.42508822 33.34595774 -68.42845234 34.98879018 -68.43196106 36.63162231 C-68.43795075 40.07652449 -68.43980114 43.52140158 -68.43920898 46.96630859 C-68.43910741 51.37694264 -68.45275559 55.78741553 -68.46998119 60.1980114 C-68.48110941 63.59181454 -68.48312793 66.98557883 -68.48259926 70.37939835 C-68.48377829 72.00526611 -68.48819576 73.63113492 -68.49593163 75.25698471 C-68.50574747 77.53325372 -68.50284722 79.80917439 -68.49682617 82.08544922 C-68.49825119 83.3798996 -68.49967621 84.67434998 -68.50114441 86.00802612 C-68.26428769 89.25607538 -67.6581319 91.48546503 -66.25390625 94.3984375 C-61.26915805 93.95053259 -58.9559487 92.73319987 -55.37890625 89.2734375 C-54.51523437 88.45617187 -53.6515625 87.63890625 -52.76171875 86.796875 C-51.93414063 86.00539063 -51.1065625 85.21390625 -50.25390625 84.3984375 C-48.92834893 83.22294327 -47.59561735 82.05545963 -46.25390625 80.8984375 C-43.22635858 78.26154114 -40.23453346 75.58827181 -37.25390625 72.8984375 C-34.20739526 70.15051258 -31.15217972 67.41471967 -28.06640625 64.7109375 C-27.43476562 64.15019531 -26.803125 63.58945312 -26.15234375 63.01171875 C-24.25390625 61.3984375 -24.25390625 61.3984375 -22.16796875 59.87890625 C-21.51570312 59.39035156 -20.8634375 58.90179688 -20.19140625 58.3984375 C-19.60230469 57.9859375 -19.01320313 57.5734375 -18.40625 57.1484375 C-16.94455439 55.27786334 -16.94455439 55.27786334 -17.25390625 52.0234375 C-18.45298046 47.67679347 -19.88781281 46.26581689 -23.31640625 43.3984375 C-23.81809326 42.96966309 -24.31978027 42.54088867 -24.83666992 42.09912109 C-26.29805451 40.8525154 -27.77565071 39.62499007 -29.25390625 38.3984375 C-30.52814938 37.27730111 -31.79938994 36.15273464 -33.06640625 35.0234375 C-37.36126646 31.28531843 -41.69443934 27.59136801 -46.02587891 23.89575195 C-50.25151351 20.28300001 -54.39975132 16.59644292 -58.484375 12.82421875 C-60.89212001 10.88420346 -62.38530894 10.09187374 -65.37890625 11.1484375 Z " fill="#FFFFFF" transform="translate(708.25390625,318.6015625)"/>
<path d="M0 0 C37 0 37 0 44.0625 6.4375 C45.09030441 8.53445727 46.11714881 10.63577585 47.00097656 12.79736328 C48.76555618 16.68789049 51.40016981 19.96004927 53.9375 23.375 C54.95099549 24.80680487 55.96010548 26.2417239 56.96484375 27.6796875 C59.96943914 31.95816952 62.98386641 36.22964726 66 40.5 C66.98701099 41.89841504 67.97399004 43.29685262 68.9609375 44.6953125 C71.09006969 47.711699 73.22049107 50.72717078 75.3515625 53.7421875 C75.89941406 54.51755859 76.44726562 55.29292969 77.01171875 56.09179688 C78.06347968 57.58030598 79.11554816 59.06859784 80.16796875 60.55664062 C80.64105469 61.22630859 81.11414063 61.89597656 81.6015625 62.5859375 C82.01744629 63.1742334 82.43333008 63.7625293 82.86181641 64.36865234 C83.92884666 65.8980166 84.96559068 67.44838602 86 69 C86.33 46.23 86.66 23.46 87 0 C98.88 0 110.76 0 123 0 C123 43.56 123 87.12 123 132 C87 132 87 132 79.5625 124.625 C78.06445312 122.11132812 78.06445312 122.11132812 77.21875 119.90625 C74.99285056 114.73430718 71.96396129 110.58346551 68.5625 106.125 C63.47698714 99.16112958 58.59947045 92.06542789 53.75878906 84.93017578 C49.36628238 78.47826234 44.7989427 72.17098489 40.14453125 65.90625 C38.71649252 63.97098439 37.33411424 62.00117136 36 60 C35.67 83.76 35.34 107.52 35 132 C23.45 132 11.9 132 0 132 C0 88.44 0 44.88 0 0 Z " fill="#FFFFFF" transform="translate(747,305)"/>
<path d="M0 0 C29.04 0 58.08 0 88 0 C88 10.89 88 21.78 88 33 C70.51 33 53.02 33 35 33 C35 38.61 35 44.22 35 50 C49.19 50 63.38 50 78 50 C78 60.56 78 71.12 78 82 C63.81 82 49.62 82 35 82 C35 87.61 35 93.22 35 99 C53.15 99 71.3 99 90 99 C90 109.89 90 120.78 90 132 C60.3 132 30.6 132 0 132 C0 88.44 0 44.88 0 0 Z " fill="#FFFFFF" transform="translate(1004,305)"/>
<path d="M0 0 C78.17662445 0 78.17662445 0 93.15234375 13.9609375 C103.15182716 24.9963082 105.71779469 36.29162789 105.28125 50.71875 C104.68063687 62.23050172 99.39372151 72.53159399 90.98046875 80.40625 C77.78289929 91.02677927 63.35648337 93.37497929 46.8125 93.125 C42.914375 93.08375 39.01625 93.0425 35 93 C35 105.87 35 118.74 35 132 C23.45 132 11.9 132 0 132 C0 88.44 0 44.88 0 0 Z M35 33 C35 41.91 35 50.82 35 60 C38.67125 60.061875 42.3425 60.12375 46.125 60.1875 C47.2711377 60.21481201 48.41727539 60.24212402 49.59814453 60.27026367 C56.48257052 60.32639655 60.95670415 59.63203965 66.3125 55 C69.45610267 51.27424869 69.31876574 47.70179467 69 43 C67.47581739 38.42745216 65.51053033 36.12690725 61.27124023 33.80932617 C56.54087671 32.12372421 51.51586984 32.59832171 46.5625 32.75 C40.8390625 32.87375 40.8390625 32.87375 35 33 Z " fill="#FFFFFF" transform="translate(481,305)"/>
<path d="M0 0 C6.11141868 5.63417123 10.04153413 12.73908846 13.05078125 20.41015625 C8.2462952 21.83775761 3.44078353 23.26183213 -1.36572266 24.68261719 C-3.00142794 25.166669 -4.63684636 25.65169129 -6.27197266 26.13769531 C-8.61937299 26.83522482 -10.96777555 27.52928246 -13.31640625 28.22265625 C-14.04979218 28.44139404 -14.7831781 28.66013184 -15.53878784 28.88549805 C-20.72147534 30.41015625 -20.72147534 30.41015625 -22.94921875 30.41015625 C-23.32046875 29.50265625 -23.69171875 28.59515625 -24.07421875 27.66015625 C-26.35135259 23.71312427 -27.80756044 22.33306904 -31.94921875 20.41015625 C-36.99806099 19.75032224 -41.38049153 19.71991627 -46.07421875 21.78515625 C-48.78770268 24.13684232 -48.92418836 25.13982806 -49.26171875 28.78515625 C-49.2792581 32.36485982 -49.2792581 32.36485982 -47.35375977 34.50244141 C-44.37397032 36.86654687 -41.83932799 37.59117346 -38.1640625 38.55859375 C-37.50773331 38.73846832 -36.85140411 38.9183429 -36.17518616 39.10366821 C-33.39003086 39.86663007 -30.59702021 40.59865112 -27.80395508 41.33203125 C-14.03867044 44.9797584 -0.76008587 49.53929463 6.83984375 62.44921875 C12.53205293 73.53688686 14.17221957 85.73167412 10.92578125 97.97265625 C7.53848398 107.26803017 -0.06664386 114.89699884 -8.63671875 119.66015625 C-24.96862162 126.94669753 -45.3672598 126.72428297 -61.94921875 120.41015625 C-72.48039041 115.91630998 -82.19366481 108.43595988 -87.94921875 98.41015625 C-88.33829806 96.08546856 -88.67946935 93.75169225 -88.94921875 91.41015625 C-84.30740579 90.09928972 -79.66268015 88.79953304 -75.01489258 87.51000977 C-73.43396212 87.06969929 -71.85387318 86.62635572 -70.2746582 86.17993164 C-68.00555995 85.53905218 -65.73366653 84.90911416 -63.4609375 84.28125 C-62.75458664 84.0792247 -62.04823578 83.8771994 -61.32048035 83.66905212 C-56.29083387 82.29628454 -56.29083387 82.29628454 -52.94921875 83.41015625 C-52.33046875 84.35890625 -51.71171875 85.30765625 -51.07421875 86.28515625 C-48.13125827 90.61303931 -45.69704133 91.93958863 -40.69921875 93.28515625 C-36.07970297 93.43914011 -32.00956448 92.70081973 -27.94921875 90.41015625 C-25.8136978 87.39186676 -25.79640326 85.24930157 -26.32421875 81.66015625 C-26.43507813 80.8609375 -26.5459375 80.06171875 -26.66015625 79.23828125 C-26.75554688 78.635 -26.8509375 78.03171875 -26.94921875 77.41015625 C-30.64790384 75.85008796 -34.33721288 74.68792801 -38.2109375 73.640625 C-39.41298828 73.30869141 -40.61503906 72.97675781 -41.85351562 72.63476562 C-44.354504 71.94915652 -46.857095 71.26936416 -49.36132812 70.59570312 C-63.02266296 66.79967355 -74.9642324 61.75941857 -82.38671875 49.03515625 C-87.80501904 38.06309817 -88.17829357 26.31013733 -84.76171875 14.53515625 C-80.98457321 4.72910532 -72.95468953 -2.86281952 -63.63671875 -7.40234375 C-43.62143413 -15.7033622 -17.03477173 -13.89409237 0 0 Z " fill="#FFFFFF" transform="translate(974.94921875,314.58984375)"/>
<path d="M0 0 C11.88 0 23.76 0 36 0 C36 32.67 36 65.34 36 99 C53.82 99 71.64 99 90 99 C90 109.89 90 120.78 90 132 C60.3 132 30.6 132 0 132 C0 88.44 0 44.88 0 0 Z " fill="#FFFFFF" transform="translate(1113,305)"/>
<path d="M0 0 C3.03560696 1.82136418 4.60600091 3.31945611 6.375 6.375 C7.17298003 9.72651613 7.03027506 11.70311982 6 15 C2.94044414 18.53025676 0.91062498 20.83016667 -3.8125 21.25 C-7.53726332 20.9578617 -9.13844371 20.39752014 -12 18 C-14.20065096 14.23759675 -15.2025847 12.14797998 -14.4375 7.8125 C-11.03923753 1.1637256 -7.3217693 -0.62048892 0 0 Z " fill="#3A87C5" transform="translate(201,342)"/>
<path d="M0 0 C3.18150263 2.26054134 3.88601462 3.58965264 4.9375 7.375 C5.01114138 11.64619985 4.5109828 13.54739865 2 17 C-1.96129054 19.43771726 -4.05940621 20.12753814 -8.6875 19.5 C-12.49963533 17.77375004 -14.00243339 16.67552256 -16 13 C-16.83727723 8.73592832 -16.52141928 5.88834395 -14.3125 2.125 C-9.38489138 -2.40307279 -6.20972773 -2.48389109 0 0 Z " fill="#3F8DCA" transform="translate(136,82)"/>
<path d="M0 0 C3.54281383 2.61860153 4.78669043 4.25341652 6 8.5 C6 13.32773113 4.52272814 15.42288871 1.25 18.8125 C-2.53273541 20.80894369 -6.21980469 20.54394857 -10.25 19.3125 C-13.80650145 16.64512391 -14.86922578 13.89907279 -15.5 9.5625 C-14.83270551 4.80802675 -13.40702151 3.32778845 -10 0 C-6.1544104 -1.2818632 -3.93271581 -0.94927623 0 0 Z " fill="#3071A9" transform="translate(332,148)"/>
</svg>
